
<svg width="55px" height="55px" viewBox="0 0 55 55" version="1.1" xmlns="http://www.w3.org/2000/svg" xmlns:xlink="http://www.w3.org/1999/xlink">
    <g id="Page-1" stroke="none" stroke-width="1" fill="none" fill-rule="evenodd">
        <g id="home-copy-2" transform="translate(-160.000000, -744.000000)">
            <g id="Group-11" transform="translate(161.000000, 745.000000)">
                <path d="M52.4875,26.2437 C52.4875,40.7377 40.7375,52.4877 26.2435,52.4877 C11.7495,52.4877 0.0005,40.7377 0.0005,26.2437 C0.0005,11.7497 11.7495,-0.0003 26.2435,-0.0003 C40.7375,-0.0003 52.4875,11.7497 52.4875,26.2437 Z" id="Stroke-1" stroke="#000" stroke-width="2"></path>
                <path d="M35.3474,20.9913 C35.3474,26.0193 31.2714,30.0953 26.2434,30.0953 C21.2164,30.0953 17.1404,26.0193 17.1404,20.9913 C17.1404,15.9633 21.2164,11.8873 26.2434,11.8873 C31.2714,11.8873 35.3474,15.9633 35.3474,20.9913" id="Fill-3" fill="#000"></path>
                <path d="M35.3474,20.9913 C35.3474,26.0193 31.2714,30.0953 26.2434,30.0953 C21.2164,30.0953 17.1404,26.0193 17.1404,20.9913 C17.1404,15.9633 21.2164,11.8873 26.2434,11.8873 C31.2714,11.8873 35.3474,15.9633 35.3474,20.9913 Z" id="Stroke-5" stroke="#000" stroke-width="2"></path>
                <path d="M8.5871,42.8965 C8.5871,38.1575 16.4921,34.3145 26.2441,34.3145 C35.9951,34.3145 43.9001,38.1575 43.9001,42.8965 C43.9001,47.6365 35.9951,51.4785 26.2441,51.4785 C16.4921,51.4785 8.5871,47.6365 8.5871,42.8965" id="Fill-7" fill="#000"></path>
                <path d="M8.5871,42.8965 C8.5871,38.1575 16.4921,34.3145 26.2441,34.3145 C35.9951,34.3145 43.9001,38.1575 43.9001,42.8965 C43.9001,47.6365 35.9951,51.4785 26.2441,51.4785 C16.4921,51.4785 8.5871,47.6365 8.5871,42.8965 Z" id="Stroke-9" stroke="#000" stroke-width="2"></path>
            </g>
        </g>
    </g>
</svg>