
<svg width="57px" height="57px" viewBox="0 0 57 57" version="1.1" xmlns="http://www.w3.org/2000/svg" xmlns:xlink="http://www.w3.org/1999/xlink">
    <g id="Symbols" stroke="none" stroke-width="1" fill="none" fill-rule="evenodd">
        <g id="profile-icon-copy">
            <path d="M55,28.5 C55,43.1353833 43.1351573,55 28.4994951,55 C13.8638329,55 2,43.1353833 2,28.5 C2,13.8646167 13.8638329,2 28.4994951,2 C43.1351573,2 55,13.8646167 55,28.5 Z" id="Stroke-1" stroke="#000" stroke-width="3"></path>
            <path d="M38,23 C38,27.9705624 33.7464711,32 28.4994782,32 C23.2535289,32 19,27.9705624 19,23 C19,18.0294376 23.2535289,14 28.4994782,14 C33.7464711,14 38,18.0294376 38,23" id="Fill-3"></path>
            <path d="M38,23 C38,27.9705624 33.7464711,32 28.4994782,32 C23.2535289,32 19,27.9705624 19,23 C19,18.0294376 23.2535289,14 28.4994782,14 C33.7464711,14 38,18.0294376 38,23 Z" id="Stroke-5" stroke="#000" stroke-width="3"></path>
            <path d="M11,45.5 C11,40.8062806 18.8349333,37 28.5004956,37 C38.1650667,37 46,40.8062806 46,45.5 C46,50.1947099 38.1650667,54 28.5004956,54 C18.8349333,54 11,50.1947099 11,45.5" id="Fill-7"></path>
            <path d="M11,45.5 C11,40.8062806 18.8349333,37 28.5004956,37 C38.1650667,37 46,40.8062806 46,45.5 C46,50.1947099 38.1650667,54 28.5004956,54 C18.8349333,54 11,50.1947099 11,45.5 Z" id="Stroke-9" stroke="#000" stroke-width="3"></path>
        </g>
    </g>
</svg>