<svg xmlns="http://www.w3.org/2000/svg" viewBox="0 0 40.17 35.25"><defs><style>.cls-1{fill:#fff;}.cls-2{fill:#6d6e71;}</style></defs><title>heart_unfilled</title><g id="Layer_2" data-name="Layer 2"><g id="Layer_1-2" data-name="Layer 1"><rect class="cls-1" width="40.17" height="35.25"/><path class="cls-2" d="M19.23,35.25a3.54,3.54,0,0,1-.54-.39L9.18,24.77c-2-2.12-4-4.25-6-6.36A11,11,0,0,1,.4,13.62a19.58,19.58,0,0,1-.36-2c0-.06,0-.13,0-.19V10.08L.12,9.2A10.44,10.44,0,0,1,2.36,4.05,10.44,10.44,0,0,1,8.58.24a10.53,10.53,0,0,1,9,2.19A10.26,10.26,0,0,1,20,5.27l.09.15a.47.47,0,0,0,.09-.12A10.45,10.45,0,0,1,27.3.23a10.38,10.38,0,0,1,9.06,2.34,10.25,10.25,0,0,1,3.58,6,10.36,10.36,0,0,1-2.21,8.94A35,35,0,0,1,35,20.27l-7.39,7.15-7.76,7.49a3.54,3.54,0,0,1-.49.34Zm.08-1.52.11.06c.3-.34.59-.71.92-1l14.48-14a24.51,24.51,0,0,0,2-2.07,9.19,9.19,0,0,0,2-7.6,9.15,9.15,0,0,0-3.25-5.62A9.52,9.52,0,0,0,23,3.76,9.54,9.54,0,0,0,20.69,7a.84.84,0,0,1-.28.36A.61.61,0,0,1,19.48,7a9.18,9.18,0,0,0-1.75-2.72,9.35,9.35,0,0,0-6.08-3A9,9,0,0,0,7,2,9.35,9.35,0,0,0,1.31,9.67a8.92,8.92,0,0,0,.53,4.4,10,10,0,0,0,2.23,3.47Q8,21.71,11.94,25.89L17.5,31.8C18.11,32.44,18.71,33.08,19.31,33.73Z"/></g></g></svg>