<svg xmlns="http://www.w3.org/2000/svg" viewBox="0 0 40.17 35.36"><defs><style>.cls-1{fill:#fff;}.cls-2{fill:#ed1c24;}</style></defs><title>heart_filled</title><g id="Layer_2" data-name="Layer 2"><g id="Layer_1-2" data-name="Layer 1"><rect class="cls-1" width="40.17" height="35.25"/><path class="cls-2" d="M19.23,35.36a3.54,3.54,0,0,1-.54-.39L9.18,24.88c-2-2.12-4-4.25-6-6.37A11,11,0,0,1,.4,13.73a20.57,20.57,0,0,1-.36-2c0-.07,0-.13,0-.2V10.19L.12,9.3A10.37,10.37,0,0,1,2.36,4.16,10.39,10.39,0,0,1,8.58.35a10.5,10.5,0,0,1,9,2.19A10,10,0,0,1,20,5.38a1,1,0,0,1,.09.15.74.74,0,0,0,.09-.12A10.45,10.45,0,0,1,27.3.34a10.38,10.38,0,0,1,9.06,2.33,10.27,10.27,0,0,1,3.58,6,10.37,10.37,0,0,1-2.21,8.94A33.23,33.23,0,0,1,35,20.37l-7.39,7.15L19.88,35a3.59,3.59,0,0,1-.49.35Z"/></g></g></svg>